<svg width="280" height="50" viewBox="0 0 280 50" fill="none" xmlns="http://www.w3.org/2000/svg">
<path d="M108.7 33.02V0H106.98V49.3573H108.7V34.7487L113.131 30.5913L113.176 30.5434L126.888 49.3573H129.071L114.304 29.3435L128.178 14.5887H125.764L112.238 29.2738L108.7 33.02Z" fill="#EFE2C2"/>
<path d="M13.7569 38.8496L23.4463 2.57069H25.2982L34.8884 38.8496L36.5459 46.2675L38.2946 38.8817L46.7273 2.57069H48.5792L37.6662 49.3573H35.7151L25.7612 10.1864L24.3663 5.00522L23.0164 10.1864L12.8641 49.3573H10.9791L0 2.57069H1.91803L10.4169 38.9139L12.0134 46.4388L13.7569 38.8496Z" fill="#EFE2C2"/>
<path d="M88.2296 49.3573H86.4769V14.5887H88.2296V21.6825C88.6131 20.6078 89.0761 19.6249 89.6185 18.7339C90.5445 17.2129 91.7019 16.0347 93.0908 15.1992C94.4797 14.3638 96.1112 13.946 97.9851 13.946C98.426 13.946 98.8229 13.9674 99.1756 14.0103C99.5504 14.0531 99.8701 14.1281 100.135 14.2352L99.9032 15.7455C99.6165 15.6598 99.3079 15.6063 98.9772 15.5848C98.6465 15.542 98.2938 15.5206 97.919 15.5206C96.2655 15.5206 94.8104 15.9276 93.5538 16.7416C92.2972 17.5343 91.2499 18.6375 90.4122 20.0514C89.5744 21.4439 88.9461 23.0613 88.5272 24.9036C88.4122 25.4094 88.313 25.924 88.2296 26.4475V49.3573Z" fill="#EFE2C2"/>
<path d="M159.461 34.4794H165.546C165.392 37.6928 164.719 40.467 163.529 42.8021C162.361 45.1157 160.652 46.8937 158.403 48.1362C156.177 49.3788 153.388 50 150.037 50C147.634 50 145.462 49.5394 143.522 48.6183C141.582 47.6971 139.917 46.3796 138.528 44.6658C137.162 42.9306 136.114 40.8526 135.387 38.4319C134.659 36.0111 134.296 33.2905 134.296 30.2699V21.626C134.296 18.6268 134.659 15.9169 135.387 13.4961C136.136 11.0754 137.206 9.00814 138.595 7.29434C140.006 5.55913 141.714 4.23093 143.72 3.30977C145.749 2.3886 148.041 1.92802 150.599 1.92802C153.729 1.92802 156.375 2.53856 158.535 3.75964C160.718 4.9593 162.394 6.72665 163.562 9.0617C164.753 11.3753 165.414 14.2138 165.546 17.5771H159.461C159.307 15.1135 158.91 13.1105 158.271 11.5681C157.632 10.0043 156.684 8.85818 155.427 8.12982C154.192 7.38003 152.583 7.00514 150.599 7.00514C148.835 7.00514 147.303 7.3479 146.002 8.03342C144.723 8.71894 143.665 9.70437 142.827 10.9897C142.012 12.2536 141.394 13.7853 140.976 15.5848C140.579 17.3629 140.38 19.3552 140.38 21.5617V30.2699C140.38 32.3265 140.546 34.2438 140.876 36.0219C141.229 37.7999 141.78 39.3638 142.53 40.7134C143.301 42.0416 144.305 43.0805 145.539 43.8303C146.774 44.5801 148.273 44.955 150.037 44.955C152.263 44.955 154.027 44.6015 155.328 43.8946C156.628 43.1877 157.587 42.063 158.205 40.5206C158.844 38.9781 159.263 36.9644 159.461 34.4794Z" fill="#EFE2C2"/>
<path d="M179.27 49.3573V14.5887H173.45V49.3573H179.27Z" fill="#EFE2C2"/>
<path d="M173.946 2.92416C173.395 3.58826 173.119 4.40231 173.119 5.36632C173.119 6.28749 173.395 7.08012 173.946 7.74422C174.497 8.38689 175.324 8.70823 176.426 8.70823C177.528 8.70823 178.355 8.38689 178.906 7.74422C179.48 7.08012 179.766 6.28749 179.766 5.36632C179.766 4.40231 179.48 3.58826 178.906 2.92416C178.355 2.26007 177.528 1.92802 176.426 1.92802C175.324 1.92802 174.497 2.26007 173.946 2.92416Z" fill="#EFE2C2"/>
<path d="M194.383 49.3573V24.4037C194.714 23.5298 195.133 22.7645 195.64 22.108C196.235 21.3368 196.94 20.7369 197.756 20.3085C198.594 19.88 199.564 19.6658 200.666 19.6658C201.173 19.6658 201.614 19.6872 201.989 19.7301C202.386 19.7515 202.827 19.8158 203.312 19.9229L203.279 14.3959C203.124 14.2888 202.783 14.1924 202.253 14.1067C201.746 13.9996 201.316 13.946 200.964 13.946C199.376 13.946 198.01 14.353 196.863 15.1671C195.852 15.8798 195.002 16.8523 194.311 18.0845L194.184 14.5887H188.53V49.3573H194.383Z" fill="#EFE2C2"/>
<path d="M224.079 44.473C223.131 44.9229 222.073 45.1478 220.905 45.1478C219.361 45.1478 218.083 44.8907 217.069 44.3766C216.054 43.841 215.261 43.0805 214.688 42.0951C214.136 41.1097 213.74 39.9315 213.497 38.5604C213.277 37.168 213.166 35.6255 213.166 33.9332V30.0129C213.166 28.3205 213.277 26.7888 213.497 25.4177C213.74 24.0467 214.147 22.8685 214.721 21.883C215.294 20.8976 216.077 20.1478 217.069 19.6337C218.083 19.0981 219.361 18.8303 220.905 18.8303C222.227 18.8303 223.363 19.1195 224.311 19.6979C225.259 20.2549 226.008 21.1118 226.56 22.2686C227.111 23.404 227.43 24.8286 227.519 26.5424H233.008C232.92 23.886 232.369 21.626 231.355 19.7622C230.363 17.877 228.974 16.4417 227.188 15.4563C225.424 14.4494 223.33 13.946 220.905 13.946C218.59 13.946 216.573 14.3102 214.853 15.0386C213.155 15.7669 211.744 16.8273 210.62 18.2198C209.518 19.5908 208.691 21.2725 208.14 23.2648C207.589 25.2356 207.313 27.485 207.313 30.0129V33.9332C207.313 36.461 207.589 38.7211 208.14 40.7134C208.691 42.6842 209.518 44.3659 210.62 45.7584C211.744 47.1294 213.155 48.1791 214.853 48.9075C216.573 49.6358 218.59 50 220.905 50C223.065 50 225.038 49.518 226.824 48.554C228.632 47.5686 230.087 46.2082 231.189 44.473C232.314 42.7164 232.92 40.6812 233.008 38.3676H227.519C227.43 39.9743 227.078 41.2811 226.46 42.2879C225.843 43.2734 225.049 44.0017 224.079 44.473Z" fill="#EFE2C2"/>
<path d="M246.071 0V49.3573H240.25V0H246.071Z" fill="#EFE2C2"/>
<path fill-rule="evenodd" clip-rule="evenodd" d="M262.341 49.0681C264.06 49.6894 265.99 50 268.128 50C270.2 50 271.975 49.7536 273.452 49.2609C274.951 48.7468 276.208 48.0934 277.222 47.3008C278.258 46.4867 279.096 45.6405 279.735 44.7622L276.66 41.1954C275.712 42.3522 274.599 43.3055 273.32 44.0553C272.041 44.7836 270.421 45.1478 268.459 45.1478C267.114 45.1478 265.912 44.9443 264.854 44.5373C263.818 44.1088 262.936 43.4662 262.209 42.6093C261.503 41.7309 260.963 40.6277 260.588 39.2995C260.235 37.9499 260.059 36.3432 260.059 34.4794V33.644H280V30.3342C280 27.6778 279.757 25.332 279.272 23.2969C278.809 21.2618 278.082 19.548 277.09 18.1555C276.098 16.7631 274.808 15.7134 273.221 15.0064C271.633 14.2995 269.715 13.946 267.467 13.946C265.791 13.946 264.16 14.2459 262.572 14.8458C260.985 15.4242 259.563 16.3668 258.306 17.6735C257.05 18.9589 256.047 20.662 255.297 22.7828C254.569 24.9036 254.206 27.4957 254.206 30.5591V34.4794C254.206 37.1358 254.525 39.4387 255.165 41.3882C255.804 43.3376 256.73 44.955 257.943 46.2404C259.155 47.5043 260.621 48.4469 262.341 49.0681ZM260.096 28.7918C260.165 27.2327 260.329 25.8938 260.588 24.7751C260.963 23.2541 261.47 22.0651 262.109 21.2082C262.771 20.3299 263.553 19.7194 264.457 19.3766C265.383 19.0124 266.386 18.8303 267.467 18.8303C269.164 18.8303 270.476 19.2267 271.402 20.0193C272.328 20.7905 272.989 21.8616 273.386 23.2326C273.805 24.6037 274.059 26.1889 274.147 27.9884V28.7918H260.096Z" fill="#EFE2C2"/>
<path fill-rule="evenodd" clip-rule="evenodd" d="M64.7061 24.9623C67.0218 24.9623 68.8991 23.0573 68.8991 20.7074C68.8991 18.3574 67.0218 16.4524 64.7061 16.4524C62.3904 16.4524 60.5131 18.3574 60.5131 20.7074C60.5131 23.0573 62.3904 24.9623 64.7061 24.9623ZM64.7061 23.2603C66.0955 23.2603 67.2219 22.1173 67.2219 20.7074C67.2219 19.2974 66.0955 18.1544 64.7061 18.1544C63.3167 18.1544 62.1903 19.2974 62.1903 20.7074C62.1903 22.1173 63.3167 23.2603 64.7061 23.2603Z" fill="#EFE2C2"/>
<path fill-rule="evenodd" clip-rule="evenodd" d="M54.0839 31.2029C56.3996 31.2029 58.2769 29.2979 58.2769 26.948C58.2769 24.598 56.3996 22.693 54.0839 22.693C51.7682 22.693 49.8909 24.598 49.8909 26.948C49.8909 29.2979 51.7682 31.2029 54.0839 31.2029ZM54.0839 29.5009C55.4733 29.5009 56.5997 28.3579 56.5997 26.948C56.5997 25.538 55.4733 24.395 54.0839 24.395C52.6945 24.395 51.5681 25.538 51.5681 26.948C51.5681 28.3579 52.6945 29.5009 54.0839 29.5009Z" fill="#EFE2C2"/>
<path fill-rule="evenodd" clip-rule="evenodd" d="M54.0839 43.1167C56.3996 43.1167 58.2769 41.2117 58.2769 38.8618C58.2769 36.5119 56.3996 34.6069 54.0839 34.6069C51.7682 34.6069 49.8909 36.5119 49.8909 38.8618C49.8909 41.2117 51.7682 43.1167 54.0839 43.1167ZM56.5997 38.8618C56.5997 40.2718 55.4733 41.4148 54.0839 41.4148C52.6945 41.4148 51.5681 40.2718 51.5681 38.8618C51.5681 37.4518 52.6945 36.3088 54.0839 36.3088C55.4733 36.3088 56.5997 37.4518 56.5997 38.8618Z" fill="#EFE2C2"/>
<path fill-rule="evenodd" clip-rule="evenodd" d="M64.7061 49.3573C67.0218 49.3573 68.8991 47.4523 68.8991 45.1024C68.8991 42.7524 67.0218 40.8474 64.7061 40.8474C62.3904 40.8474 60.5131 42.7524 60.5131 45.1024C60.5131 47.4523 62.3904 49.3573 64.7061 49.3573ZM64.7061 47.6554C66.0955 47.6554 67.2219 46.5124 67.2219 45.1024C67.2219 43.6924 66.0955 42.5494 64.7061 42.5494C63.3167 42.5494 62.1903 43.6924 62.1903 45.1024C62.1903 46.5124 63.3167 47.6554 64.7061 47.6554Z" fill="#EFE2C2"/>
<path fill-rule="evenodd" clip-rule="evenodd" d="M75.3283 43.1167C77.644 43.1167 79.5213 41.2117 79.5213 38.8618C79.5213 36.5119 77.644 34.6069 75.3283 34.6069C73.0126 34.6069 71.1353 36.5119 71.1353 38.8618C71.1353 41.2117 73.0126 43.1167 75.3283 43.1167ZM77.8441 38.8618C77.8441 40.2718 76.7177 41.4148 75.3283 41.4148C73.9389 41.4148 72.8125 40.2718 72.8125 38.8618C72.8125 37.4518 73.9389 36.3088 75.3283 36.3088C76.7177 36.3088 77.8441 37.4518 77.8441 38.8618Z" fill="#EFE2C2"/>
<path fill-rule="evenodd" clip-rule="evenodd" d="M75.3283 31.2029C77.644 31.2029 79.5213 29.2979 79.5213 26.948C79.5213 24.598 77.644 22.693 75.3283 22.693C73.0126 22.693 71.1353 24.598 71.1353 26.948C71.1353 29.2979 73.0126 31.2029 75.3283 31.2029ZM75.3283 29.5009C76.7177 29.5009 77.8441 28.3579 77.8441 26.948C77.8441 25.538 76.7177 24.395 75.3283 24.395C73.9389 24.395 72.8125 25.538 72.8125 26.948C72.8125 28.3579 73.9389 29.5009 75.3283 29.5009Z" fill="#EFE2C2"/>
</svg>
